<?xml version="1.0" standalone="no"?>
<!DOCTYPE svg PUBLIC "-//W3C//DTD SVG 20010904//EN"
 "http://www.w3.org/TR/2001/REC-SVG-20010904/DTD/svg10.dtd">
<svg version="1.0" xmlns="http://www.w3.org/2000/svg"
 width="180.000000pt" height="180.000000pt" viewBox="0 0 180.000000 180.000000"
 preserveAspectRatio="xMidYMid meet">
<metadata>
Created by potrace 1.11, written by Peter Selinger 2001-2013
</metadata>
<g transform="translate(0.000000,180.000000) scale(0.100000,-0.100000)"
fill="#000000" stroke="none">
<path d="M210 1602 c0 -6 24 -15 52 -22 70 -14 96 -33 119 -83 17 -40 19 -73
19 -582 0 -297 -5 -558 -10 -579 -17 -73 -52 -101 -152 -121 -16 -3 -28 -10
-28 -16 0 -7 145 -9 463 -6 434 3 467 5 544 25 118 31 204 73 264 128 73 70
101 130 107 232 4 77 2 87 -27 147 -37 75 -97 132 -185 175 -59 29 -210 68
-271 71 -16 0 13 10 65 20 212 44 314 127 327 267 7 78 -22 147 -89 207 -65
58 -133 89 -254 116 -91 20 -134 22 -521 26 -283 3 -423 2 -423 -5z m772 -32
c84 -24 132 -101 144 -232 8 -86 -8 -192 -36 -247 -29 -57 -64 -83 -127 -96
-31 -6 -58 -16 -60 -22 -2 -6 19 -13 49 -17 164 -21 228 -126 228 -373 0 -252
-64 -351 -230 -361 -70 -4 -79 -2 -104 20 -21 17 -31 38 -37 74 -4 27 -8 322
-8 657 l-1 607 73 0 c39 0 89 -5 109 -10z"/>
</g>
</svg>
